<svg width="37" height="49" viewBox="0 0 37 49" fill="none" xmlns="http://www.w3.org/2000/svg">
<path d="M6.75997 0.920006C5.18988 0.920006 3.68411 1.54372 2.57389 2.65393C1.46368 3.76415 0.839966 5.26992 0.839966 6.84001V42.36C0.839966 43.9301 1.46368 45.4359 2.57389 46.5461C3.68411 47.6563 5.18988 48.28 6.75997 48.28H30.44C32.01 48.28 33.5158 47.6563 34.626 46.5461C35.7362 45.4359 36.36 43.9301 36.36 42.36V6.84001C36.36 5.26992 35.7362 3.76415 34.626 2.65393C33.5158 1.54372 32.01 0.920006 30.44 0.920006H21.56V20.16C21.56 20.4349 21.4834 20.7043 21.3389 20.9381C21.1944 21.1719 20.9877 21.3608 20.7418 21.4838C20.496 21.6067 20.2208 21.6587 19.9471 21.634C19.6733 21.6093 19.4118 21.5089 19.192 21.344L14.16 17.57L9.12797 21.344C8.90808 21.5089 8.64662 21.6093 8.37288 21.634C8.09913 21.6587 7.82393 21.6067 7.57809 21.4838C7.33225 21.3608 7.1255 21.1719 6.981 20.9381C6.8365 20.7043 6.75997 20.4349 6.75997 20.16V0.920006ZM18.6 0.920006H9.71996V17.2L13.272 14.536C13.5281 14.3439 13.8397 14.24 14.16 14.24C14.4802 14.24 14.7918 14.3439 15.048 14.536L18.6 17.2V0.920006Z" fill="#54C7C6"/>
</svg>
